<?xml version="1.0" encoding="UTF-8" standalone="no"?>
<!DOCTYPE svg PUBLIC "-//W3C//DTD SVG 1.1//EN"
 "http://www.w3.org/Graphics/SVG/1.1/DTD/svg11.dtd">
<!-- Generated by graphviz version 2.38.0 (20140413.2041)
 -->
<!-- Title: %3 Pages: 1 -->
<svg width="113pt" height="127pt"
 viewBox="0.00 0.00 113.00 127.00" xmlns="http://www.w3.org/2000/svg" xmlns:xlink="http://www.w3.org/1999/xlink">
<g id="graph0" class="graph" transform="scale(1 1) rotate(0) translate(4 123)">
<title>%3</title>
<polygon fill="white" stroke="none" points="-4,4 -4,-123 109,-123 109,4 -4,4"/>
<!-- tollwerk/intentio -->
<g id="node1" class="node"><title>tollwerk/intentio</title>
<path fill="#eeeeee" stroke="black" stroke-width="2" d="M93,-119C93,-119 12,-119 12,-119 6,-119 0,-113 0,-107 0,-107 0,-95 0,-95 0,-89 6,-83 12,-83 12,-83 93,-83 93,-83 99,-83 105,-89 105,-95 105,-95 105,-107 105,-107 105,-113 99,-119 93,-119"/>
<text text-anchor="middle" x="52.5" y="-97.3" font-family="Times New Roman,serif" font-size="14.00" fill="#314b5f">tollwerk/intentio</text>
</g>
<!-- php -->
<g id="node2" class="node"><title>php</title>
<path fill="#eeeeee" stroke="black" d="M67.5,-36C67.5,-36 37.5,-36 37.5,-36 31.5,-36 25.5,-30 25.5,-24 25.5,-24 25.5,-12 25.5,-12 25.5,-6 31.5,-0 37.5,-0 37.5,-0 67.5,-0 67.5,-0 73.5,-0 79.5,-6 79.5,-12 79.5,-12 79.5,-24 79.5,-24 79.5,-30 73.5,-36 67.5,-36"/>
<text text-anchor="middle" x="52.5" y="-14.3" font-family="Times New Roman,serif" font-size="14.00" fill="#314b5f">php</text>
</g>
<!-- tollwerk/intentio&#45;&gt;php -->
<g id="edge1" class="edge"><title>tollwerk/intentio&#45;&gt;php</title>
<path fill="none" stroke="#1a2833" d="M52.5,-82.822C52.5,-72.1903 52.5,-58.306 52.5,-46.2035"/>
<polygon fill="#1a2833" stroke="#1a2833" points="56.0001,-46.1532 52.5,-36.1533 49.0001,-46.1533 56.0001,-46.1532"/>
<text text-anchor="middle" x="63.5" y="-57" font-family="Times New Roman,serif" font-size="10.00" fill="#767676">&gt;=7.2</text>
</g>
</g>
</svg>
