<?xml version="1.0" encoding="UTF-8" standalone="no"?>
<!DOCTYPE svg PUBLIC "-//W3C//DTD SVG 1.1//EN"
 "http://www.w3.org/Graphics/SVG/1.1/DTD/svg11.dtd">
<!-- Generated by graphviz version 2.40.1 (20161225.0304)
 -->
<!-- Title: %3 Pages: 1 -->
<svg width="115pt" height="127pt"
 viewBox="0.00 0.00 115.00 127.00" xmlns="http://www.w3.org/2000/svg" xmlns:xlink="http://www.w3.org/1999/xlink">
<g id="graph0" class="graph" transform="scale(1 1) rotate(0) translate(4 123)">
<title>%3</title>
<polygon fill="#ffffff" stroke="transparent" points="-4,4 -4,-123 111,-123 111,4 -4,4"/>
<!-- tollwerk/intentio -->
<g id="node1" class="node">
<title>tollwerk/intentio</title>
<path fill="#eeeeee" stroke="#000000" stroke-width="2" d="M95,-119C95,-119 12,-119 12,-119 6,-119 0,-113 0,-107 0,-107 0,-95 0,-95 0,-89 6,-83 12,-83 12,-83 95,-83 95,-83 101,-83 107,-89 107,-95 107,-95 107,-107 107,-107 107,-113 101,-119 95,-119"/>
<text text-anchor="middle" x="53.5" y="-97.3" font-family="Times,serif" font-size="14.00" fill="#314b5f">tollwerk/intentio</text>
</g>
<!-- php -->
<g id="node2" class="node">
<title>php</title>
<path fill="#eeeeee" stroke="#000000" d="M68.5,-36C68.5,-36 38.5,-36 38.5,-36 32.5,-36 26.5,-30 26.5,-24 26.5,-24 26.5,-12 26.5,-12 26.5,-6 32.5,0 38.5,0 38.5,0 68.5,0 68.5,0 74.5,0 80.5,-6 80.5,-12 80.5,-12 80.5,-24 80.5,-24 80.5,-30 74.5,-36 68.5,-36"/>
<text text-anchor="middle" x="53.5" y="-14.3" font-family="Times,serif" font-size="14.00" fill="#314b5f">php</text>
</g>
<!-- tollwerk/intentio&#45;&gt;php -->
<g id="edge1" class="edge">
<title>tollwerk/intentio&#45;&gt;php</title>
<path fill="none" stroke="#1a2833" d="M53.5,-82.9902C53.5,-72.2963 53.5,-58.4994 53.5,-46.3706"/>
<polygon fill="#1a2833" stroke="#1a2833" points="57.0001,-46.2612 53.5,-36.2612 50.0001,-46.2613 57.0001,-46.2612"/>
<text text-anchor="middle" x="66" y="-57" font-family="Times,serif" font-size="10.00" fill="#767676">&gt;=7.2</text>
</g>
</g>
</svg>
